<?xml version="1.0" encoding="utf-8"?>
<!-- Generator: Adobe Illustrator 16.0.0, SVG Export Plug-In . SVG Version: 6.00 Build 0)  -->
<!DOCTYPE svg PUBLIC "-//W3C//DTD SVG 1.1//EN" "http://www.w3.org/Graphics/SVG/1.1/DTD/svg11.dtd">
<svg version="1.1" id="Layer_1" xmlns="http://www.w3.org/2000/svg" xmlns:xlink="http://www.w3.org/1999/xlink" x="0px" y="0px"
	 width="121.569px" height="22.169px" viewBox="0 0 121.569 22.169" enable-background="new 0 0 121.569 22.169"
	 xml:space="preserve">
<g>
	<defs>
		<rect id="SVGID_1_" x="-39.514" y="-38.748" width="200" height="100"/>
	</defs>
	<clipPath id="SVGID_2_">
		<use xlink:href="#SVGID_1_"  overflow="visible"/>
	</clipPath>
	<path clip-path="url(#SVGID_2_)" fill="#FFFFFF" d="M45.719,4.642h-3.138l-1.815,3.19c-0.231,0.421-0.446,0.862-0.59,1.167
		c-0.153-0.307-0.381-0.754-0.614-1.169l-1.777-3.188h-3.12l3.88,6.406l-4.042,6.583h3.068l1.989-3.483
		c0.244-0.417,0.463-0.842,0.607-1.133c0.149,0.293,0.37,0.719,0.601,1.131l2.008,3.485h3.086l-4.06-6.583L45.719,4.642z"/>
	<path clip-path="url(#SVGID_2_)" fill="#FFFFFF" d="M57.199,13.796c-0.014,0.015-1.425,1.52-3.478,1.52
		c-2.628,0-4.003-2.146-4.003-4.268c0-2.409,1.639-4.092,3.985-4.092c1.882,0,3.265,1.255,3.279,1.267l0.193,0.178l1.331-2.06
		L58.39,6.215c-0.067-0.073-1.674-1.786-4.793-1.786c-3.803,0-6.671,2.861-6.671,6.654c0,3.917,2.821,6.759,6.707,6.759
		c3.263,0,5.025-2.022,5.098-2.108l0.114-0.134l-1.464-2.002L57.199,13.796z"/>
	<polygon clip-path="url(#SVGID_2_)" fill="#FFFFFF" points="64.053,12.293 68.276,12.293 68.276,9.89 64.053,9.89 64.053,7.045 
		69.283,7.045 69.283,4.642 61.331,4.642 61.331,17.63 69.565,17.63 69.565,15.228 64.053,15.228 	"/>
	<path clip-path="url(#SVGID_2_)" fill="#FFFFFF" d="M77.44,4.641h-5.063v12.99H75.1v-4.33h2.341c2.482,0,4.215-1.791,4.215-4.356
		C81.655,6.411,79.923,4.641,77.44,4.641 M75.1,7.045h1.952c1.157,0,1.847,0.71,1.847,1.9c0,1.211-0.704,1.935-1.882,1.935H75.1
		V7.045z"/>
	<polygon clip-path="url(#SVGID_2_)" fill="#FFFFFF" points="82.595,7.045 86.713,7.045 86.713,17.631 89.434,17.631 89.434,7.045 
		93.551,7.045 93.551,4.641 82.595,4.641 	"/>
	<path clip-path="url(#SVGID_2_)" fill="#FFFFFF" d="M101.391,4.43c-3.761,0-6.707,2.907-6.707,6.618
		c0,3.811,2.946,6.795,6.707,6.795s6.707-2.984,6.707-6.795C108.098,7.337,105.151,4.43,101.391,4.43 M101.391,15.316
		c-2.23,0-3.914-1.835-3.914-4.268c0-2.294,1.72-4.091,3.914-4.091c2.195,0,3.915,1.797,3.915,4.091
		C105.306,13.481,103.623,15.316,101.391,15.316"/>
	<path clip-path="url(#SVGID_2_)" fill="#FFFFFF" d="M118.198,12.62c-0.111-0.199-0.209-0.348-0.285-0.453
		c1.229-0.615,2.01-1.966,2.01-3.522c0-1.682-0.795-3.005-2.18-3.63c-0.61-0.275-1.295-0.373-2.618-0.373h-4.269v12.99h2.723v-4.685
		h1.837l2.492,4.685h3.052L118.198,12.62z M113.579,7.045h1.51c1.724,0,2.077,0.689,2.077,1.723c0,1.117-0.642,1.758-1.758,1.758
		h-1.829V7.045z"/>
	<polygon clip-path="url(#SVGID_2_)" fill="#3A557B" points="21.235,12.739 21.082,12.911 19.919,14.211 24.826,20.167 
		19.962,20.168 17.388,17.043 16.072,18.516 19.042,22.086 28.961,22.086 	"/>
	<path clip-path="url(#SVGID_2_)" fill="#2CA5DE" d="M8.986,1.951l7.531,9.139l-7.439,9.045l-4.866-0.003l6.418-7.804l1.02-1.24
		l-1.02-1.24L4.133,1.951H8.986z M9.907-0.001L0,0l9.123,11.089L0.081,22.082L10,22.086l9.045-10.998L9.907-0.001z"/>
	<polygon clip-path="url(#SVGID_2_)" fill="#3A557B" points="17.34,5.083 19.912,1.958 24.779,1.958 19.874,7.918 21.082,9.268 
		21.191,9.39 28.913,0.007 18.991,0.007 16.024,3.612 	"/>
	<path clip-path="url(#SVGID_2_)" fill="#3B567C" d="M45.719,4.642h-3.138l-1.815,3.19c-0.231,0.421-0.446,0.862-0.59,1.167
		c-0.153-0.307-0.381-0.754-0.614-1.169l-1.777-3.188h-3.12l3.88,6.406l-4.042,6.583h3.068l1.989-3.483
		c0.244-0.417,0.463-0.842,0.607-1.133c0.149,0.293,0.37,0.719,0.601,1.131l2.008,3.485h3.086l-4.06-6.583L45.719,4.642z"/>
	<path clip-path="url(#SVGID_2_)" fill="#3B567C" d="M57.199,13.796c-0.014,0.015-1.425,1.52-3.478,1.52
		c-2.628,0-4.003-2.146-4.003-4.268c0-2.409,1.639-4.092,3.985-4.092c1.882,0,3.265,1.255,3.279,1.267l0.193,0.178l1.331-2.06
		L58.39,6.215c-0.067-0.073-1.674-1.786-4.793-1.786c-3.803,0-6.671,2.861-6.671,6.654c0,3.917,2.821,6.759,6.707,6.759
		c3.263,0,5.025-2.022,5.098-2.108l0.114-0.134l-1.464-2.002L57.199,13.796z"/>
	<polygon clip-path="url(#SVGID_2_)" fill="#3B567C" points="64.053,12.293 68.276,12.293 68.276,9.89 64.053,9.89 64.053,7.045 
		69.283,7.045 69.283,4.642 61.331,4.642 61.331,17.63 69.565,17.63 69.565,15.228 64.053,15.228 	"/>
	<path clip-path="url(#SVGID_2_)" fill="#3B567C" d="M77.44,4.641h-5.063v12.99H75.1v-4.33h2.341c2.482,0,4.215-1.791,4.215-4.356
		C81.655,6.411,79.923,4.641,77.44,4.641 M75.1,7.045h1.952c1.157,0,1.847,0.71,1.847,1.9c0,1.211-0.704,1.935-1.882,1.935H75.1
		V7.045z"/>
	<polygon clip-path="url(#SVGID_2_)" fill="#3B567C" points="82.595,7.045 86.713,7.045 86.713,17.631 89.434,17.631 89.434,7.045 
		93.551,7.045 93.551,4.641 82.595,4.641 	"/>
	<path clip-path="url(#SVGID_2_)" fill="#3B567C" d="M101.391,4.43c-3.761,0-6.707,2.907-6.707,6.618
		c0,3.811,2.946,6.795,6.707,6.795s6.707-2.984,6.707-6.795C108.098,7.337,105.151,4.43,101.391,4.43 M101.391,15.316
		c-2.23,0-3.914-1.835-3.914-4.268c0-2.294,1.72-4.091,3.914-4.091c2.195,0,3.915,1.797,3.915,4.091
		C105.306,13.481,103.623,15.316,101.391,15.316"/>
	<path clip-path="url(#SVGID_2_)" fill="#3B567C" d="M118.198,12.62c-0.111-0.199-0.209-0.348-0.285-0.453
		c1.229-0.615,2.01-1.966,2.01-3.522c0-1.682-0.795-3.005-2.18-3.63c-0.61-0.275-1.295-0.373-2.618-0.373h-4.269v12.99h2.723v-4.685
		h1.837l2.492,4.685h3.052L118.198,12.62z M113.579,7.045h1.51c1.724,0,2.077,0.689,2.077,1.723c0,1.117-0.642,1.758-1.758,1.758
		h-1.829V7.045z"/>
	<polygon clip-path="url(#SVGID_2_)" fill="#3A557B" points="21.235,12.739 21.082,12.911 19.919,14.211 24.826,20.167 
		19.962,20.168 17.388,17.043 16.072,18.516 19.042,22.086 28.961,22.086 	"/>
	<path clip-path="url(#SVGID_2_)" fill="#2CA5DE" d="M8.986,1.951l7.531,9.139l-7.439,9.045l-4.866-0.003l6.418-7.804l1.02-1.24
		l-1.02-1.24L4.133,1.951H8.986z M9.907-0.001L0,0l9.123,11.089L0.081,22.082L10,22.086l9.045-10.998L9.907-0.001z"/>
	<polygon clip-path="url(#SVGID_2_)" fill="#3A557B" points="17.34,5.083 19.912,1.958 24.779,1.958 19.874,7.918 21.082,9.268 
		21.191,9.39 28.913,0.007 18.991,0.007 16.024,3.612 	"/>
</g>
</svg>
